PathFileType	4	(X/Y/Z)	/Users/itak/Documents/Research/Walk-IL/dataset/trc/00397_00012.trc
DataRate	CameraRate	NumFrames	NumMarkers	Units	OrigDataRate	OrigDataStartFrame	OrigNumFrames
100.000000	100.000000	4	53	mm	100.000000	0	722
Frame#	Time	RPSI			LPSI			L3			STRN			T10			C7			CLAV			RBAK			LBAK			LSHO			LUPA			LAEL			LAOL			LWTS			LWPS			LFRA			LIFD			LHPS			LHTS			RSHO			RUPA			RAEL			RAOL			RWTS			RWPS			RFRA			RIFD			RHTS			RHPS			RBHD			LFHD			RFHD			LBHD			LHIP			RHIP			RASI			LASI			LKNE			LTHI			LANK			LTIP			LTOE			LMT1			LMT5			LHEE			RKNE			RTHI			RANK			RTIP			RTOE			RMT1			RMT5			RHEE			
		X1	Y1	Z1	X2	Y2	Z2	X3	Y3	Z3	X4	Y4	Z4	X5	Y5	Z5	X6	Y6	Z6	X7	Y7	Z7	X8	Y8	Z8	X9	Y9	Z9	X10	Y10	Z10	X11	Y11	Z11	X12	Y12	Z12	X13	Y13	Z13	X14	Y14	Z14	X15	Y15	Z15	X16	Y16	Z16	X17	Y17	Z17	X18	Y18	Z18	X19	Y19	Z19	X20	Y20	Z20	X21	Y21	Z21	X22	Y22	Z22	X23	Y23	Z23	X24	Y24	Z24	X25	Y25	Z25	X26	Y26	Z26	X27	Y27	Z27	X28	Y28	Z28	X29	Y29	Z29	X30	Y30	Z30	X31	Y31	Z31	X32	Y32	Z32	X33	Y33	Z33	X34	Y34	Z34	X35	Y35	Z35	X36	Y36	Z36	X37	Y37	Z37	X38	Y38	Z38	X39	Y39	Z39	X40	Y40	Z40	X41	Y41	Z41	X42	Y42	Z42	X43	Y43	Z43	X44	Y44	Z44	X45	Y45	Z45	X46	Y46	Z46	X47	Y47	Z47	X48	Y48	Z48	X49	Y49	Z49	X50	Y50	Z50	X51	Y51	Z51	X52	Y52	Z52	X53	Y53	Z53	

1	0	-20.37684059143066	995.5753173828125	1250.707885742188	-24.21086120605469	986.74169921875	1119.628051757812	-21.55587577819824	1058.395141601562	1186.02294921875	210.3602600097656	1213.399047851562	1191.284790039062	-27.85502243041992	1159.162109375	1179.028076171875	-2.074178218841553	1409.674926757812	1167.255493164062	156.4054412841797	1332.580810546875	1186.497802734375	-43.0396614074707	1261.885131835938	1233.036254882812	-3.727100133895874	1370.75537109375	1061.582153320312	87.88796234130859	1388.63916015625	1019.773620605469	80.25651550292969	1270.825927734375	947.722900390625	110.5311889648438	1071.283935546875	934.2236938476562	41.90565490722656	1052.999145507812	982.811767578125	198.3165435791016	861.7298583984375	1013.088928222656	166.9224090576172	843.0289916992188	939.4121704101562	133.5198516845703	967.1879272460938	934.44775390625	208.8120727539062	682.908447265625	1017.887817382812	182.4727783203125	759.1656494140625	955.7345581054688	225.1861419677734	766.2823486328125	1002.521484375	47.56558990478516	1389.781372070312	1330.397705078125	35.60478973388672	1324.421508789062	1388.998901367188	66.43795776367188	1061.28369140625	1431.353881835938	41.27388381958008	1053.775756835938	1340.766479492188	202.5465087890625	851.0184326171875	1385.154907226562	167.5698852539062	837.9059448242188	1448.007568359375	96.06263732910156	996.9835205078125	1442.427856445312	212.9122619628906	678.7432250976562	1386.505737304688	229.4113006591797	747.8544921875	1401.31640625	178.0832214355469	749.1175537109375	1447.2412109375	42.37815475463867	1605.503540039062	1255.721557617188	185.3113098144531	1600.310302734375	1117.786743164062	174.4938507080078	1609.845581054688	1240.118408203125	37.83638763427734	1590.628540039062	1094.646362304688	64.11328887939453	969.8947143554688	1008.024719238281	61.52278137207031	970.7950439453125	1365.443359375	196.1576843261719	974.4950561523438	1310.969360351562	179.4380645751953	964.1134033203125	1047.953002929688	77.22536468505859	475.0081481933594	1027.84521484375	79.00611877441406	617.3997192382812	1017.049011230469	-10.33553314208984	39.05466079711914	1080.3408203125	26.25356101989746	245.6728363037109	1041.927612304688	202.8505859375	44.28089904785156	1144.698852539062	123.7196884155273	46.00310897827148	1173.554565429688	117.1942672729492	40.2979621887207	1068.766235351562	-48.58572006225586	39.59628295898438	1137.505493164062	83.62781524658203	479.6564331054688	1353.595336914062	128.8480834960938	744.6527099609375	1372.259399414062	25.95461082458496	56.03752517700195	1326.824829101562	88.0751953125	353.4136352539062	1342.822265625	209.5418701171875	40.41423416137695	1271.636596679688	133.9520416259766	46.31447601318359	1239.842651367188	109.9153366088867	45.77157974243164	1337.462646484375	-43.79050445556641	43.85265350341797	1269.817626953125	
2	0.01	-20.4964714050293	995.617431640625	1250.834106445312	-24.20073318481445	986.7053833007812	1119.687255859375	-21.49449157714844	1058.415405273438	1186.093505859375	210.4530944824219	1213.4677734375	1191.435302734375	-27.82807731628418	1159.17626953125	1179.103271484375	-2.009651184082031	1409.705322265625	1167.317138671875	156.4311981201172	1332.573486328125	1186.533325195312	-43.026123046875	1261.946655273438	1233.19921875	-3.719285011291504	1370.775756835938	1061.6494140625	87.91923522949219	1388.647094726562	1019.827270507812	80.25779724121094	1270.84521484375	947.7838745117188	110.4514236450195	1071.2890625	934.2493286132812	41.88067626953125	1053.010864257812	982.838623046875	198.2324676513672	861.7061157226562	1013.093688964844	166.7998809814453	843.0140991210938	939.432861328125	133.44970703125	967.1851196289062	934.4841918945312	208.6068725585938	682.8776245117188	1017.873107910156	182.3757171630859	759.1560668945312	955.7432250976562	224.9735717773438	766.2378540039062	1002.492614746094	47.61618423461914	1389.797973632812	1330.474487304688	35.67556762695312	1324.447631835938	1389.109497070312	66.43618774414062	1061.29931640625	1431.408325195312	41.24821853637695	1053.798950195312	1340.818237304688	202.4945220947266	851.02197265625	1385.167114257812	167.5563659667969	837.7728271484375	1448.054931640625	96.04419708251953	996.9794311523438	1442.460205078125	212.8733520507812	678.7391967773438	1386.483032226562	229.3121643066406	747.8413696289062	1401.330444335938	178.0363464355469	749.107666015625	1447.254028320312	42.41355514526367	1605.465087890625	1255.781616210938	185.4399871826172	1600.2841796875	1117.956298828125	174.5903778076172	1609.792236328125	1240.235107421875	37.93029022216797	1590.657836914062	1094.711791992188	64.01256561279297	969.958984375	1008.120239257812	61.42515563964844	970.8656005859375	1365.548461914062	196.1225891113281	974.5111694335938	1311.01806640625	179.3637847900391	964.1115112304688	1048.031005859375	77.22971343994141	474.9992370605469	1027.842529296875	78.98270416259766	617.3973388671875	1017.059509277344	-10.33171558380127	39.05305099487305	1080.330688476562	26.25579833984375	245.6639251708984	1041.930419921875	202.8382263183594	44.2867546081543	1144.702392578125	123.71142578125	46.0093994140625	1173.558471679688	117.1863708496094	40.29609298706055	1068.762084960938	-48.59780502319336	39.59364318847656	1137.500610351562	83.65252685546875	479.654296875	1353.611450195312	128.8101348876953	744.7127685546875	1372.271728515625	25.9622745513916	56.04608535766602	1326.812866210938	88.10848236083984	353.3647766113281	1342.823974609375	209.5446166992188	40.42475509643555	1271.629028320312	133.9569702148438	46.31721496582031	1239.83203125	109.9021911621094	45.76568603515625	1337.4541015625	-43.77833938598633	43.84589385986328	1269.814697265625	
3	0.02	-20.63129425048828	995.67431640625	1250.98486328125	-24.20137405395508	986.6558837890625	1119.77001953125	-21.45371246337891	1058.434936523438	1186.159545898438	210.5653076171875	1213.534790039062	1191.611572265625	-27.8017749786377	1159.201416015625	1179.202270507812	-1.932587742805481	1409.74609375	1167.39306640625	156.4609680175781	1332.563720703125	1186.58349609375	-43.05055236816406	1262.036865234375	1233.395629882812	-3.712679862976074	1370.803344726562	1061.737182617188	87.95642852783203	1388.655517578125	1019.899353027344	80.25418853759766	1270.869140625	947.861328125	110.3552093505859	1071.296264648438	934.2879638671875	41.84756851196289	1053.018432617188	982.8775024414062	198.1189880371094	861.674072265625	1013.103088378906	166.6504364013672	842.9964599609375	939.4590454101562	133.357666015625	967.1817016601562	934.531982421875	208.3772888183594	682.8383178710938	1017.854431152344	182.2388916015625	759.142578125	955.754638671875	224.6989440917969	766.175537109375	1002.458251953125	47.68450164794922	1389.815185546875	1330.578491210938	35.75658798217773	1324.47900390625	1389.247802734375	66.42900848388672	1061.316040039062	1431.477905273438	41.21569442749023	1053.829833984375	1340.882202148438	202.4344635009766	851.0260620117188	1385.185913085938	167.5435943603516	837.6345825195312	1448.115600585938	96.0174560546875	996.9745483398438	1442.510498046875	212.8294677734375	678.737060546875	1386.460205078125	229.2104644775391	747.8281860351562	1401.34765625	177.9845886230469	749.0946655273438	1447.267822265625	42.46271514892578	1605.421508789062	1255.855224609375	185.5864562988281	1600.243530273438	1118.15576171875	174.7156982421875	1609.728271484375	1240.3779296875	38.06057357788086	1590.696533203125	1094.792846679688	63.90189743041992	970.0098266601562	1008.223327636719	61.27402496337891	970.9745483398438	1365.704223632812	196.0731201171875	974.5305786132812	1311.080688476562	179.2747344970703	964.1121826171875	1048.135620117188	77.23687744140625	474.9895935058594	1027.841552734375	78.95419311523438	617.394775390625	1017.076416015625	-10.33024120330811	39.05031585693359	1080.319091796875	26.25663375854492	245.6548919677734	1041.936767578125	202.8230133056641	44.29542541503906	1144.706787109375	123.7006149291992	46.01623916625977	1173.560791015625	117.1767349243164	40.29495239257812	1068.75732421875	-48.61164855957031	39.58834075927734	1137.494750976562	83.68776702880859	479.6477966308594	1353.634399414062	128.7341613769531	744.8084716796875	1372.310791015625	25.96335029602051	56.05332183837891	1326.80126953125	88.15350341796875	353.3073425292969	1342.82470703125	209.5464935302734	40.43601226806641	1271.620727539062	133.9633636474609	46.3199462890625	1239.820190429688	109.8870162963867	45.76135635375977	1337.444946289062	-43.76429748535156	43.83825302124023	1269.8125	
4	0.03	-20.76581573486328	995.741455078125	1251.150634765625	-24.21780204772949	986.5952758789062	1119.873901367188	-21.44934844970703	1058.453979492188	1186.214721679688	210.6876525878906	1213.589233398438	1191.800415039062	-27.78116226196289	1159.239501953125	1179.323364257812	-1.84834361076355	1409.795166015625	1167.479125976562	156.4924774169922	1332.552001953125	1186.650024414062	-43.12055587768555	1262.15478515625	1233.611328125	-3.708068370819092	1370.83837890625	1061.843872070312	87.99806976318359	1388.664184570312	1019.990295410156	80.24559020996094	1270.896118164062	947.9525146484375	110.248420715332	1071.305541992188	934.3419189453125	41.80668640136719	1053.018798828125	982.9296264648438	197.977294921875	861.6336669921875	1013.118957519531	166.4795989990234	842.9772338867188	939.489501953125	133.2459259033203	967.1782836914062	934.5901489257812	208.1409454345703	682.7926635742188	1017.833374023438	182.0612640380859	759.1251831054688	955.7692260742188	224.3728942871094	766.0962524414062	1002.422668457031	47.77001571655273	1389.830200195312	1330.709594726562	35.84103775024414	1324.513427734375	1389.408081054688	66.41323852539062	1061.33203125	1431.560302734375	41.17847061157227	1053.86767578125	1340.95556640625	202.3724212646484	851.0310668945312	1385.212768554688	167.5339813232422	837.508544921875	1448.187622070312	95.98168182373047	996.9695434570312	1442.581909179688	212.7879486083984	678.7391967773438	1386.442138671875	229.1223754882812	747.8175659179688	1401.3671875	177.9322204589844	749.0789184570312	1447.281494140625	42.52754592895508	1605.377685546875	1255.940551757812	185.7404632568359	1600.188842773438	1118.370971679688	174.8661651611328	1609.6572265625	1240.53857421875	38.22677993774414	1590.740234375	1094.890502929688	63.7884407043457	970.0393676757812	1008.324951171875	61.06446075439453	971.1248779296875	1365.91259765625	196.0098571777344	974.5517578125	1311.15576171875	179.1767578125	964.1167602539062	1048.264892578125	77.24777221679688	474.9805908203125	1027.844360351562	78.92289733886719	617.3922119140625	1017.1025390625	-10.33296489715576	39.04608917236328	1080.30810546875	26.25545120239258	245.6465759277344	1041.947509765625	202.8062286376953	44.30659484863281	1144.712036132812	123.6874771118164	46.02204132080078	1173.56103515625	117.1660461425781	40.29541397094727	1068.752319335938	-48.62530899047852	39.58001327514648	1137.488403320312	83.73533630371094	479.6347351074219	1353.664306640625	128.6122436523438	744.9432983398438	1372.3828125	25.9577522277832	56.05877304077148	1326.791259765625	88.21002197265625	353.2452087402344	1342.82421875	209.5473480224609	40.44658279418945	1271.6123046875	133.9699554443359	46.32175445556641	1239.80859375	109.8703536987305	45.75981521606445	1337.43603515625	-43.75007247924805	43.83070373535156	1269.811401367188	
